<svg id="keyboard" version="1.1" width="483" height="120" xmlns="http://www.w3.org/2000/svg">
    <defs>
        <style type="text/css">
            <![CDATA[
            .key {
              stroke: black;
            }

            .white {
              fill: white;
            }

            .black {
              fill: black;
            }

            .selected {
              fill: #FFF691;
            }
            ]]>
        </style>
    </defs>
    <rect y="0" width="23" height="120" id="0" class="white key" x="0"></rect>
    <rect y="0" width="23" height="120" id="2" class="white key" x="23"></rect>
    <rect y="0" width="23" height="120" id="4" class="white key" x="46"></rect>
    <rect y="0" width="23" height="120" id="5" class="white key" x="69"></rect>
    <rect y="0" width="23" height="120" id="7" class="white key" x="92"></rect>
    <rect y="0" width="23" height="120" id="9" class="white key" x="115"></rect>
    <rect y="0" width="23" height="120" id="11" class="white key" x="138"></rect>
    <rect y="0" width="23" height="120" id="12" class="white key" x="161"></rect>
    <rect y="0" width="23" height="120" id="14" class="white key" x="184"></rect>
    <rect y="0" width="23" height="120" id="16" class="white key" x="207"></rect>
    <rect y="0" width="23" height="120" id="17" class="white key" x="230"></rect>
    <rect y="0" width="23" height="120" id="19" class="white key" x="253"></rect>
    <rect y="0" width="23" height="120" id="21" class="white key" x="276"></rect>
    <rect y="0" width="23" height="120" id="23" class="white key" x="299"></rect>
    <rect y="0" width="23" height="120" id="24" class="white key" x="322"></rect>
    <rect y="0" width="23" height="120" id="26" class="white key" x="345"></rect>
    <rect y="0" width="23" height="120" id="28" class="white key" x="368"></rect>
    <rect y="0" width="23" height="120" id="29" class="white key" x="391"></rect>
    <rect y="0" width="23" height="120" id="31" class="white key" x="414"></rect>
    <rect y="0" width="23" height="120" id="33" class="white key" x="437"></rect>
    <rect y="0" width="23" height="120" id="35" class="white key" x="460"></rect>
    <rect y="0" width="13" height="80" id="1" class="black key" x="16.5"></rect>
    <rect y="0" width="13" height="80" id="3" class="black key" x="39.5"></rect>
    <rect y="0" width="13" height="80" id="6" class="black key" x="85.5"></rect>
    <rect y="0" width="13" height="80" id="8" class="black key" x="108.5"></rect>
    <rect y="0" width="13" height="80" id="10" class="black key" x="131.5"></rect>
    <rect y="0" width="13" height="80" id="13" class="black key" x="177.5"></rect>
    <rect y="0" width="13" height="80" id="15" class="black key" x="200.5"></rect>
    <rect y="0" width="13" height="80" id="18" class="black key" x="246.5"></rect>
    <rect y="0" width="13" height="80" id="20" class="black key" x="269.5"></rect>
    <rect y="0" width="13" height="80" id="22" class="black key" x="292.5"></rect>
    <rect y="0" width="13" height="80" id="25" class="black key" x="338.5"></rect>
    <rect y="0" width="13" height="80" id="27" class="black key" x="361.5"></rect>
    <rect y="0" width="13" height="80" id="30" class="black key" x="407.5"></rect>
    <rect y="0" width="13" height="80" id="32" class="black key" x="430.5"></rect>
    <rect y="0" width="13" height="80" id="34" class="black key" x="453.5"></rect>
</svg>