<svg height="200" width="200" viewbox="0 0 200 200">
  <defs>
    <linearGradient id="background" x1="0%" y1="0%" x2="0%" y2="100%">
      <stop offset="0%" style="stop-color:#1AD6FD;stop-opacity:1" />
      <stop offset="100%" style="stop-color:#1D62F0;stop-opacity:1" />
    </linearGradient>
  </defs>

  <rect width="200" height="200" rx="30" ry="30" fill="url(#background)" />

  <rect x="25" y="25" width="150" height="150" rx="15" ry="15" fill="white" />

  <rect x="70" y="25" width="5" height="150" fill="black" />
  <rect x="125" y="25" width="5" height="150" fill="black" />

  <rect x="65" y="25" width="5" height="150" fill="#DDDDDD" />
  <rect x="120" y="25" width="5" height="150" fill="#DDDDDD" />

  <rect x="60" y="25" width="25" height="100" fill="black" />
  <rect x="115" y="25" width="25" height="100" fill="black" />

  <polygon points="85,25 85,125 100,25" fill="#DDDDDD" />
  <polygon points="140,25 140,125 155,25" fill="#DDDDDD" />

  <polygon points="60,25 65,110 80,110 85,25" fill="#333" />
  <polygon points="115,25 120,110 135,110 140,25" fill="#333" />

  <polygon points="60,125 65,110 80,110 85,125" fill="#555" />
  <polygon points="115,125 120,110 135,110 140,125" fill="#555" />
</svg>